<?xml version="1.0" encoding="UTF-8"?>
<svg width="697px" height="126px" viewBox="0 0 697 126" version="1.1" xmlns="http://www.w3.org/2000/svg" xmlns:xlink="http://www.w3.org/1999/xlink">
    <!-- Generator: Sketch 43.2 (39069) - http://www.bohemiancoding.com/sketch -->
    <title>Page 1</title>
    <desc>Created with Sketch.</desc>
    <defs>
        <polygon id="path-1" points="0.85595237 2.93784974 96.1955122 2.93784974 96.1955122 98.2729291 0.85595237 98.2729291 0.85595237 2.93784974"></polygon>
    </defs>
    <g id="Page-1" stroke="none" stroke-width="1" fill="none" fill-rule="evenodd">
        <g id="Desktop" transform="translate(-162.000000, -328.000000)">
            <g id="Page-1" transform="translate(162.000000, 325.000000)">
                <polygon id="Fill-1" fill="#944D2A" points="572.80651 69.4245876 630.162174 126.780251 656.487418 96.442254 603.151102 43.1125327"></polygon>
                <polygon id="Fill-2" fill="#99552E" points="624.244599 120.860698 578.739252 75.3520539 608.665093 48.6245455 650.975405 90.9348573"></polygon>
                <polygon id="Fill-3" fill="#944D2A" points="618.577286 115.196682 584.397993 81.0206861 613.934758 53.887616 645.710356 85.6632141"></polygon>
                <polygon id="Fill-4" fill="#99552E" points="611.721974 108.338072 591.252646 87.8786363 620.308013 60.2608704 639.333145 79.2860029"></polygon>
                <polygon id="Fill-5" fill="#944D2A" points="605.884193 102.500291 597.090427 93.7098229 625.73034 65.6864953 633.90752 73.8636753"></polygon>
                <g id="Group-17" transform="translate(0.000000, 0.360389)">
                    <g id="Group-8" transform="translate(600.099497, 0.000000)">
                        <mask id="mask-2" fill="white">
                            <use xlink:href="#path-1"></use>
                        </mask>
                        <g id="Clip-7"></g>
                        <path d="M75.337546,23.7979018 C73.9592955,22.4130568 75.0704688,19.066348 77.8137807,16.3164415 C80.5669845,13.5665351 83.9136932,12.4586591 85.2919437,13.8369096 C86.6767887,15.2217546 85.5689127,18.5684633 82.8223035,21.321667 C80.0690997,24.0682763 76.722391,25.1761523 75.337546,23.7979018 M64.1268961,88.7932935 C64.1334906,88.7834017 64.1433823,88.7801045 64.1499768,88.7702127 C64.1895438,88.733943 64.2225163,88.6910787 64.2620833,88.6449172 C64.3972706,88.5064327 64.5258633,88.3613537 64.6478616,88.2162747 C64.7105093,88.1503297 64.7632653,88.0711957 64.8259131,88.0019535 C64.8687773,87.942603 64.918236,87.8865497 64.957803,87.8337937 C65.3633648,87.3128282 65.670009,86.781971 65.8975193,86.2379247 C66.5503748,84.7673512 66.7185345,83.1319152 66.4250793,81.4470205 C64.8753718,72.5048785 52.0457721,61.8679501 61.1362903,52.8631604 C74.8297695,40.6699299 91.7314729,25.6641453 94.1054929,23.5604998 C94.2011132,23.4813658 94.2439774,23.4483933 94.2472747,23.4417988 C94.3363004,23.3560703 94.3857592,23.3066115 94.3857592,23.3066115 C95.6024444,22.1360878 96.2849752,20.5336243 96.1860577,19.066348 C95.9354667,15.2052683 94.3659757,11.5387263 91.8963354,8.96357408 C91.7215812,8.78881983 91.5600159,8.62066009 91.3918562,8.46568934 C91.2632634,8.34369109 91.1379679,8.23488184 91.0093752,8.12277534 C90.9038632,7.99747984 90.7884594,7.87218434 90.6730557,7.75348334 C90.5180849,7.57543184 90.3433307,7.40727209 90.1718737,7.24570684 L90.1718737,7.24240959 C87.5967214,4.7694721 83.9301795,3.19998111 80.0690997,2.94609286 C78.608418,2.85047261 76.99936,3.52970611 75.8288362,4.7496886 C75.8288362,4.7496886 75.7826747,4.8024446 75.693649,4.89147035 C75.6903517,4.8947676 75.654082,4.9343346 75.5782453,5.0332521 C73.4745998,7.40397484 58.4721123,24.3056783 46.2656929,38.0024547 C37.2642004,47.0863784 26.6305692,34.2633732 17.6917245,32.7070712 C15.996938,32.413616 14.3713938,32.5883702 12.8942258,33.2412257 C12.3600713,33.4654387 11.8259168,33.7786775 11.2983568,34.180942 C11.2456008,34.220509 11.1928448,34.2633732 11.1400888,34.3095347 C11.064252,34.3688852 10.998307,34.4249385 10.9224703,34.4875862 C10.7740941,34.6095845 10.6356096,34.73488 10.4872333,34.8733645 C10.4476663,34.9096342 10.4080993,34.9524985 10.3619378,34.9821737 C10.3619378,34.9920655 10.3454516,34.9953627 10.3388571,35.0052545 C10.3388571,35.0052545 0.842777096,44.3397692 0.855966096,44.3628499 C0.869155096,44.3727417 0.958180846,44.4650647 1.12304334,44.6233327 C1.62422534,45.1245147 54.4395756,97.9431622 54.5055206,98.0124044 C54.6736803,98.1739697 54.7693006,98.2662927 54.7693006,98.2728872 C54.7989758,98.2959679 64.1268961,88.7932935 64.1268961,88.7932935" id="Fill-6" fill="#D08E2A" mask="url(#mask-2)"></path>
                    </g>
                    <polygon id="Fill-9" fill="#EBEBEB" points="654.616888 98.5336996 600.696959 44.6137706 609.167594 36.1530272 663.080929 90.0729562"></polygon>
                    <path d="M631.882349,115.547839 C628.123484,113.843161 629.49514,110.090891 629.152226,103.611794 C628.806015,97.1294009 619.267071,87.9201817 613.460614,86.2122062 C607.660751,84.5075279 595.721409,78.0251345 593.673816,72.5681857 C591.629521,67.1079398 588.559782,64.7174335 584.121683,60.2826323 C581.190428,57.3579716 574.991598,62.9105405 571.120627,67.018914 C560.866179,73.7650875 570.767821,77.0590402 524.685455,79.086849 C471.761296,81.4278964 483.390696,78.1405382 421.346343,78.203186 C403.274116,78.2229695 310.14329,76.8117465 292.071063,76.9139612 C273.893324,77.016176 431.40955,77.134877 413.231811,77.2634697 C395.04418,77.3920625 367.327497,77.5338442 349.136569,77.688815 C330.995099,77.8404885 130.360735,78.0152427 112.22586,78.2064832 C94.2129833,78.3911292 75.9132458,78.598856 57.9069637,78.823069 C40.091922,79.0439847 22.2768803,79.2879812 4.45194693,79.548464 C0.142441199,79.6111117 10.9640156,79.6737595 6.65121267,79.7430017 C4.90367018,79.7660825 0.775513196,80.3365067 0.158927449,82.4170714 C-1.84580054,89.1962174 15.8439456,86.1396667 18.7191476,86.0341547 C27.3018893,85.7044297 36.2374368,85.6121067 44.47067,88.4114719 C44.404725,88.3883912 40.342513,95.2763464 44.8234757,96.8491346 C43.9859742,97.5976104 42.822045,98.0856034 42.0076243,98.8703489 C44.0815945,100.172763 45.2257402,100.937725 47.1447397,102.487432 C52.331314,106.671642 30.1606051,104.541619 35.3537738,107.33439 C35.23837,110.892122 60.5942224,110.658018 45.0312025,110.658018 C50.2177767,113.444194 41.0975833,111.198767 41.0975833,113.984943 C41.0975833,119.567187 4.91685918,117.968021 25.6697506,122.148934 C30.8629193,123.546968 28.0932293,124.077825 28.0932293,126.870596 C90.3650925,126.870596 214.288936,127.431128 281.608889,126.059472 C318.455657,125.317591 449.316915,126.277091 486.091144,126.3859 C506.032912,126.44525 525.97468,126.498006 545.916448,126.537573 C565.617516,126.580438 513.989176,126.606816 533.696839,126.626599 C534.47499,126.626599 535.635622,126.633194 537.116087,126.64968 C570.339178,128.726947 621.139909,128.967647 627.790462,128.169712 C636.320448,127.147565 636.280881,122.26104 639.436349,117.311868 C642.387388,112.712204 635.631323,117.255815 631.882349,115.547839" id="Fill-11" fill="#E95374"></path>
                    <path d="M581.768106,71.5565894 C582.519879,67.5372417 584.379528,63.3662205 586.446904,68.9847345 C588.388984,74.2702262 585.751184,75.2791847 593.562369,81.5505541 C596.368329,83.7959814 600.146978,84.2147321 603.520064,85.0621254 C605.086258,85.4512009 609.926621,86.4502676 610.480559,88.2044046 C611.255413,90.6278834 605.033502,91.5247354 603.048558,91.6401391 C599.764497,91.8313796 596.434274,91.1356599 593.387615,89.9387581 C587.25473,87.5383601 582.285774,82.4605951 581.448273,75.6517739 C581.332869,74.7384357 581.458165,73.1557557 581.768106,71.5565894" id="Fill-13" fill="#FEFEFE"></path>
                    <path d="M575.824154,95.8705108 C575.824154,95.8705108 588.060248,112.752431 596.784772,116.316758 C605.509295,119.877788 623.215528,125.123713 617.923441,125.123713 C607.912991,125.123713 589.494552,121.671492 566.252237,122.779368 C541.588807,123.949892 589.151638,117.493876 563.535303,93.2623861 C552.740107,83.0475056 556.472593,81.9000626 567.013902,90.3113474 C571.409136,93.8097296 570.667255,91.3532784 575.824154,95.8705108" id="Fill-15" fill="#F7F7F7"></path>
                </g>
            </g>
        </g>
    </g>
</svg>